<mxfile host="Electron" modified="2024-02-14T09:29:37.172Z" agent="Mozilla/5.0 (Windows NT 10.0; Win64; x64) AppleWebKit/537.36 (KHTML, like Gecko) draw.io/23.0.2 Chrome/120.0.6099.109 Electron/28.1.0 Safari/537.36" etag="Yt_aKbRD3am0SEIcmLLv" version="23.0.2" type="device">
  <diagram name="Page-1" id="SQzSyG6cgK3RhAJUsZKI">
    <mxGraphModel dx="584" dy="1568" grid="1" gridSize="10" guides="1" tooltips="1" connect="1" arrows="1" fold="1" page="1" pageScale="1" pageWidth="1654" pageHeight="1169" math="0" shadow="0">
      <root>
        <mxCell id="0" />
        <mxCell id="1" parent="0" />
        <mxCell id="KKVsU4eMc3JYL8btH_r8-83" value="" style="edgeStyle=orthogonalEdgeStyle;rounded=0;orthogonalLoop=1;jettySize=auto;html=1;exitX=0;exitY=0.25;exitDx=0;exitDy=0;entryX=1;entryY=0.5;entryDx=0;entryDy=0;jumpStyle=arc;strokeColor=#808080;" parent="1" source="KKVsU4eMc3JYL8btH_r8-90" target="KKVsU4eMc3JYL8btH_r8-67" edge="1">
          <mxGeometry relative="1" as="geometry">
            <mxPoint x="295.1299999999999" y="384.9999999999999" as="sourcePoint" />
          </mxGeometry>
        </mxCell>
        <mxCell id="KKVsU4eMc3JYL8btH_r8-90" value="&lt;b style=&quot;border-color: var(--border-color); font-size: 11px;&quot;&gt;CareTeam&lt;/b&gt;&lt;font style=&quot;border-color: var(--border-color); font-size: 11px;&quot; color=&quot;#808080&quot;&gt;&lt;br style=&quot;border-color: var(--border-color);&quot;&gt;&lt;/font&gt;&lt;font style=&quot;border-color: var(--border-color); font-size: 10px;&quot;&gt;uri: org-A.nl/CareTeam/ct1&lt;/font&gt;" style="rounded=1;whiteSpace=wrap;html=1;verticalAlign=top;spacingTop=10;" parent="1" vertex="1">
          <mxGeometry x="295" y="395" width="140" height="65" as="geometry" />
        </mxCell>
        <mxCell id="KKVsU4eMc3JYL8btH_r8-67" value="&lt;b style=&quot;border-color: var(--border-color); font-size: 11px;&quot;&gt;Patient&lt;/b&gt;&lt;font style=&quot;border-color: var(--border-color); font-size: 11px;&quot; color=&quot;#808080&quot;&gt;&lt;br style=&quot;border-color: var(--border-color);&quot;&gt;&lt;/font&gt;&lt;font style=&quot;border-color: var(--border-color); font-size: 10px;&quot;&gt;uri: org-A.nl/Patient/patP&lt;/font&gt;" style="rounded=1;whiteSpace=wrap;html=1;verticalAlign=top;spacingTop=10;" parent="1" vertex="1">
          <mxGeometry x="70" y="220" width="140" height="65" as="geometry" />
        </mxCell>
        <mxCell id="KKVsU4eMc3JYL8btH_r8-68" style="edgeStyle=orthogonalEdgeStyle;rounded=0;orthogonalLoop=1;jettySize=auto;html=1;entryX=0.5;entryY=0;entryDx=0;entryDy=0;strokeColor=#808080;" parent="1" source="KKVsU4eMc3JYL8btH_r8-70" target="KKVsU4eMc3JYL8btH_r8-71" edge="1">
          <mxGeometry relative="1" as="geometry" />
        </mxCell>
        <mxCell id="KKVsU4eMc3JYL8btH_r8-69" value="recorder" style="edgeLabel;html=1;align=center;verticalAlign=middle;resizable=0;points=[];" parent="KKVsU4eMc3JYL8btH_r8-68" vertex="1" connectable="0">
          <mxGeometry x="-0.2678" y="-2" relative="1" as="geometry">
            <mxPoint x="-32" y="-10" as="offset" />
          </mxGeometry>
        </mxCell>
        <mxCell id="KKVsU4eMc3JYL8btH_r8-70" value="&lt;b style=&quot;border-color: var(--border-color); font-size: 11px;&quot;&gt;Condition&lt;/b&gt;&lt;font style=&quot;border-color: var(--border-color); font-size: 11px;&quot; color=&quot;#808080&quot;&gt;&lt;br style=&quot;border-color: var(--border-color);&quot;&gt;&lt;/font&gt;&lt;font style=&quot;font-size: 10px;&quot;&gt;uri: org-A.nl/Condition/con1&lt;br&gt;code: Diabetes Mellitus II&lt;br&gt;&lt;/font&gt;" style="rounded=1;whiteSpace=wrap;html=1;verticalAlign=top;spacingTop=10;" parent="1" vertex="1">
          <mxGeometry x="70" y="310" width="140" height="65" as="geometry" />
        </mxCell>
        <mxCell id="KKVsU4eMc3JYL8btH_r8-71" value="&lt;b style=&quot;border-color: var(--border-color); font-size: 11px;&quot;&gt;Practitioner&lt;/b&gt;&lt;font style=&quot;border-color: var(--border-color); font-size: 11px;&quot; color=&quot;#808080&quot;&gt;&lt;br style=&quot;border-color: var(--border-color);&quot;&gt;&lt;/font&gt;&lt;font style=&quot;border-color: var(--border-color); font-size: 10px;&quot;&gt;uri: org-A.nl/Practitioner/prA&lt;/font&gt;" style="rounded=1;whiteSpace=wrap;html=1;verticalAlign=top;spacingTop=10;" parent="1" vertex="1">
          <mxGeometry x="70" y="400" width="140" height="65" as="geometry" />
        </mxCell>
        <mxCell id="KKVsU4eMc3JYL8btH_r8-72" style="edgeStyle=orthogonalEdgeStyle;rounded=0;orthogonalLoop=1;jettySize=auto;html=1;exitX=0.5;exitY=0;exitDx=0;exitDy=0;entryX=0.5;entryY=1;entryDx=0;entryDy=0;strokeColor=#808080;" parent="1" source="KKVsU4eMc3JYL8btH_r8-70" target="KKVsU4eMc3JYL8btH_r8-67" edge="1">
          <mxGeometry relative="1" as="geometry">
            <mxPoint x="570" y="474.9999999999999" as="sourcePoint" />
          </mxGeometry>
        </mxCell>
        <mxCell id="KKVsU4eMc3JYL8btH_r8-73" value="subject" style="edgeLabel;html=1;align=center;verticalAlign=middle;resizable=0;points=[];" parent="KKVsU4eMc3JYL8btH_r8-72" vertex="1" connectable="0">
          <mxGeometry x="0.635" y="-1" relative="1" as="geometry">
            <mxPoint x="-21" y="11" as="offset" />
          </mxGeometry>
        </mxCell>
        <mxCell id="KKVsU4eMc3JYL8btH_r8-75" style="edgeStyle=orthogonalEdgeStyle;rounded=0;orthogonalLoop=1;jettySize=auto;html=1;exitX=0;exitY=0.75;exitDx=0;exitDy=0;entryX=1;entryY=0.5;entryDx=0;entryDy=0;jumpStyle=arc;strokeColor=#808080;" parent="1" source="KKVsU4eMc3JYL8btH_r8-79" target="KKVsU4eMc3JYL8btH_r8-70" edge="1">
          <mxGeometry relative="1" as="geometry">
            <mxPoint x="140" y="570" as="targetPoint" />
          </mxGeometry>
        </mxCell>
        <mxCell id="KKVsU4eMc3JYL8btH_r8-76" value="adresses" style="edgeLabel;html=1;align=center;verticalAlign=middle;resizable=0;points=[];labelBackgroundColor=#FFFFFF;" parent="KKVsU4eMc3JYL8btH_r8-75" vertex="1" connectable="0">
          <mxGeometry x="0.1987" y="-1" relative="1" as="geometry">
            <mxPoint x="2" y="12" as="offset" />
          </mxGeometry>
        </mxCell>
        <mxCell id="KKVsU4eMc3JYL8btH_r8-77" style="edgeStyle=orthogonalEdgeStyle;rounded=0;orthogonalLoop=1;jettySize=auto;html=1;exitX=0.5;exitY=1;exitDx=0;exitDy=0;entryX=0.5;entryY=0;entryDx=0;entryDy=0;strokeColor=#808080;" parent="1" source="KKVsU4eMc3JYL8btH_r8-79" target="KKVsU4eMc3JYL8btH_r8-90" edge="1">
          <mxGeometry relative="1" as="geometry">
            <mxPoint x="339.9999999999998" y="360" as="sourcePoint" />
            <mxPoint x="364.9999999999998" y="384.9999999999999" as="targetPoint" />
          </mxGeometry>
        </mxCell>
        <mxCell id="KKVsU4eMc3JYL8btH_r8-78" value="careTeam" style="edgeLabel;html=1;align=center;verticalAlign=middle;resizable=0;points=[];" parent="KKVsU4eMc3JYL8btH_r8-77" vertex="1" connectable="0">
          <mxGeometry x="-0.1712" relative="1" as="geometry">
            <mxPoint x="-26" y="-2" as="offset" />
          </mxGeometry>
        </mxCell>
        <mxCell id="KKVsU4eMc3JYL8btH_r8-84" style="edgeStyle=orthogonalEdgeStyle;rounded=0;orthogonalLoop=1;jettySize=auto;html=1;exitX=0.5;exitY=0;exitDx=0;exitDy=0;entryX=1;entryY=0.5;entryDx=0;entryDy=0;strokeColor=#808080;" parent="1" source="KKVsU4eMc3JYL8btH_r8-79" target="KKVsU4eMc3JYL8btH_r8-67" edge="1">
          <mxGeometry relative="1" as="geometry" />
        </mxCell>
        <mxCell id="KKVsU4eMc3JYL8btH_r8-85" value="subject" style="edgeLabel;html=1;align=center;verticalAlign=middle;resizable=0;points=[];" parent="KKVsU4eMc3JYL8btH_r8-84" vertex="1" connectable="0">
          <mxGeometry x="-0.3514" relative="1" as="geometry">
            <mxPoint x="-66" y="8" as="offset" />
          </mxGeometry>
        </mxCell>
        <mxCell id="KKVsU4eMc3JYL8btH_r8-79" value="&lt;font style=&quot;&quot;&gt;&lt;b style=&quot;font-size: 11px;&quot;&gt;CarePlan&lt;/b&gt;&lt;font style=&quot;font-size: 11px;&quot; color=&quot;#808080&quot;&gt;&lt;br style=&quot;font-size: 11px;&quot;&gt;&lt;/font&gt;&lt;font style=&quot;font-size: 10px;&quot;&gt;uri: org-A.nl/CarePlan/cp1&lt;br&gt;&lt;/font&gt;&lt;br style=&quot;font-size: 11px;&quot;&gt;&lt;/font&gt;" style="rounded=1;whiteSpace=wrap;html=1;verticalAlign=top;spacingTop=2;fontSize=11;fillColor=#dae8fc;strokeColor=#6c8ebf;" parent="1" vertex="1">
          <mxGeometry x="280" y="283" width="170" height="80" as="geometry" />
        </mxCell>
        <mxCell id="KKVsU4eMc3JYL8btH_r8-80" value="&lt;font style=&quot;&quot;&gt;&lt;font style=&quot;font-size: 10px;&quot;&gt;members&lt;/font&gt;&lt;br&gt;&lt;/font&gt;" style="rounded=1;whiteSpace=wrap;html=1;verticalAlign=middle;spacingTop=0;spacing=0;fillColor=none;" parent="1" vertex="1">
          <mxGeometry x="326" y="443" width="75" height="13" as="geometry" />
        </mxCell>
        <mxCell id="KKVsU4eMc3JYL8btH_r8-86" value="&lt;font style=&quot;&quot;&gt;&lt;font style=&quot;font-size: 10px;&quot;&gt;activities&lt;/font&gt;&lt;br&gt;&lt;/font&gt;" style="rounded=1;whiteSpace=wrap;html=1;verticalAlign=middle;spacingTop=0;spacing=0;fillColor=none;" parent="1" vertex="1">
          <mxGeometry x="327.5" y="343" width="75" height="13" as="geometry" />
        </mxCell>
        <mxCell id="KKVsU4eMc3JYL8btH_r8-87" value="" style="edgeStyle=orthogonalEdgeStyle;rounded=0;orthogonalLoop=1;jettySize=auto;html=1;exitX=0;exitY=0.5;exitDx=0;exitDy=0;entryX=1;entryY=0.75;entryDx=0;entryDy=0;strokeColor=#808080;" parent="1" source="KKVsU4eMc3JYL8btH_r8-80" target="KKVsU4eMc3JYL8btH_r8-71" edge="1">
          <mxGeometry relative="1" as="geometry">
            <mxPoint x="450" y="284" as="sourcePoint" />
            <mxPoint x="210" y="433" as="targetPoint" />
          </mxGeometry>
        </mxCell>
        <mxCell id="KKVsU4eMc3JYL8btH_r8-176" value="role: gp&lt;br style=&quot;border-color: var(--border-color);&quot;&gt;start: 1/1/23" style="edgeLabel;html=1;align=center;verticalAlign=middle;resizable=0;points=[];" parent="KKVsU4eMc3JYL8btH_r8-87" vertex="1" connectable="0">
          <mxGeometry x="0.4037" relative="1" as="geometry">
            <mxPoint x="15" y="7" as="offset" />
          </mxGeometry>
        </mxCell>
        <mxCell id="KKVsU4eMc3JYL8btH_r8-103" style="edgeStyle=orthogonalEdgeStyle;rounded=0;orthogonalLoop=1;jettySize=auto;html=1;exitX=1;exitY=0.5;exitDx=0;exitDy=0;entryX=0;entryY=0.5;entryDx=0;entryDy=0;strokeColor=#808080;" parent="1" source="KKVsU4eMc3JYL8btH_r8-81" target="KKVsU4eMc3JYL8btH_r8-89" edge="1">
          <mxGeometry relative="1" as="geometry" />
        </mxCell>
        <mxCell id="KKVsU4eMc3JYL8btH_r8-104" style="edgeStyle=orthogonalEdgeStyle;rounded=0;orthogonalLoop=1;jettySize=auto;html=1;exitX=1;exitY=0.5;exitDx=0;exitDy=0;entryX=0;entryY=0.5;entryDx=0;entryDy=0;strokeColor=#808080;" parent="1" source="KKVsU4eMc3JYL8btH_r8-81" target="KKVsU4eMc3JYL8btH_r8-93" edge="1">
          <mxGeometry relative="1" as="geometry" />
        </mxCell>
        <mxCell id="KKVsU4eMc3JYL8btH_r8-81" value="&lt;font style=&quot;&quot;&gt;&lt;font style=&quot;font-size: 10px;&quot;&gt;supportingInfo&lt;/font&gt;&lt;br&gt;&lt;/font&gt;" style="rounded=1;whiteSpace=wrap;html=1;verticalAlign=middle;spacingTop=0;spacing=0;fillColor=none;" parent="1" vertex="1">
          <mxGeometry x="326" y="321.5" width="75" height="13" as="geometry" />
        </mxCell>
        <mxCell id="KKVsU4eMc3JYL8btH_r8-89" value="&lt;b style=&quot;border-color: var(--border-color); font-size: 11px;&quot;&gt;Condition&lt;/b&gt;&lt;font style=&quot;border-color: var(--border-color); font-size: 11px;&quot; color=&quot;#808080&quot;&gt;&lt;br style=&quot;border-color: var(--border-color);&quot;&gt;&lt;/font&gt;&lt;font style=&quot;border-color: var(--border-color); font-size: 10px;&quot;&gt;uri: org-A.nl/Condition/con1&lt;br style=&quot;border-color: var(--border-color);&quot;&gt;code: hypertensie&lt;/font&gt;" style="rounded=1;whiteSpace=wrap;html=1;verticalAlign=top;spacingTop=10;" parent="1" vertex="1">
          <mxGeometry x="490" y="192.5" width="140" height="65" as="geometry" />
        </mxCell>
        <mxCell id="KKVsU4eMc3JYL8btH_r8-93" value="&lt;b style=&quot;border-color: var(--border-color); font-size: 11px;&quot;&gt;MedicationRequest&lt;/b&gt;&lt;font style=&quot;border-color: var(--border-color); font-size: 11px;&quot; color=&quot;#808080&quot;&gt;&lt;br style=&quot;border-color: var(--border-color);&quot;&gt;&lt;/font&gt;&lt;font style=&quot;border-color: var(--border-color); font-size: 10px;&quot;&gt;uri: org-A.nl/ MedicationRequest/mr1&lt;/font&gt;" style="rounded=1;whiteSpace=wrap;html=1;verticalAlign=top;spacingTop=10;" parent="1" vertex="1">
          <mxGeometry x="490" y="269.5" width="140" height="65" as="geometry" />
        </mxCell>
        <mxCell id="KKVsU4eMc3JYL8btH_r8-96" style="edgeStyle=orthogonalEdgeStyle;rounded=0;orthogonalLoop=1;jettySize=auto;html=1;exitX=0.25;exitY=1;exitDx=0;exitDy=0;entryX=0.5;entryY=1;entryDx=0;entryDy=0;strokeColor=#808080;" parent="1" source="KKVsU4eMc3JYL8btH_r8-100" target="KKVsU4eMc3JYL8btH_r8-71" edge="1">
          <mxGeometry relative="1" as="geometry">
            <mxPoint x="1050.0000000000002" y="216.5" as="sourcePoint" />
            <mxPoint x="1337" y="344.5" as="targetPoint" />
            <Array as="points">
              <mxPoint x="525" y="490" />
              <mxPoint x="140" y="490" />
            </Array>
          </mxGeometry>
        </mxCell>
        <mxCell id="KKVsU4eMc3JYL8btH_r8-97" value="requestor" style="edgeLabel;html=1;align=center;verticalAlign=middle;resizable=0;points=[];" parent="KKVsU4eMc3JYL8btH_r8-96" vertex="1" connectable="0">
          <mxGeometry x="0.2856" relative="1" as="geometry">
            <mxPoint x="-8" as="offset" />
          </mxGeometry>
        </mxCell>
        <mxCell id="KKVsU4eMc3JYL8btH_r8-99" value="&lt;b style=&quot;border-color: var(--border-color); font-size: 11px;&quot;&gt;Organization&lt;/b&gt;&lt;font style=&quot;border-color: var(--border-color); font-size: 11px;&quot; color=&quot;#808080&quot;&gt;&lt;br style=&quot;border-color: var(--border-color);&quot;&gt;&lt;/font&gt;&lt;font style=&quot;font-size: 10px;&quot;&gt;uri: org-A.nl/Organization/orgB&lt;/font&gt;&lt;span style=&quot;font-size: 14px;&quot;&gt;&lt;br&gt;&lt;/span&gt;" style="rounded=1;whiteSpace=wrap;html=1;verticalAlign=top;spacingTop=2;" parent="1" vertex="1">
          <mxGeometry x="490" y="510" width="140" height="65" as="geometry" />
        </mxCell>
        <mxCell id="KKVsU4eMc3JYL8btH_r8-105" style="edgeStyle=orthogonalEdgeStyle;rounded=0;orthogonalLoop=1;jettySize=auto;html=1;entryX=0.5;entryY=0;entryDx=0;entryDy=0;strokeColor=#808080;" parent="1" source="KKVsU4eMc3JYL8btH_r8-100" target="KKVsU4eMc3JYL8btH_r8-99" edge="1">
          <mxGeometry relative="1" as="geometry" />
        </mxCell>
        <mxCell id="KKVsU4eMc3JYL8btH_r8-106" value="owner" style="edgeLabel;html=1;align=center;verticalAlign=middle;resizable=0;points=[];" parent="KKVsU4eMc3JYL8btH_r8-105" vertex="1" connectable="0">
          <mxGeometry x="-0.6051" y="1" relative="1" as="geometry">
            <mxPoint x="-1" y="6" as="offset" />
          </mxGeometry>
        </mxCell>
        <mxCell id="KKVsU4eMc3JYL8btH_r8-100" value="&lt;font style=&quot;font-size: 10px;&quot;&gt;&lt;b style=&quot;font-size: 11px;&quot;&gt;Task&lt;/b&gt;&lt;font style=&quot;font-size: 11px;&quot; color=&quot;#808080&quot;&gt;&lt;br style=&quot;font-size: 11px;&quot;&gt;&lt;/font&gt;uri: org-A.nl/Task/task1&lt;br style=&quot;&quot;&gt;code:&amp;nbsp;amputation&lt;br&gt;status: requested&lt;br style=&quot;font-size: 11px;&quot;&gt;&lt;br style=&quot;font-size: 11px;&quot;&gt;&lt;/font&gt;" style="rounded=1;whiteSpace=wrap;html=1;verticalAlign=top;spacingTop=2;fontSize=11;fillColor=#d5e8d4;strokeColor=#82b366;" parent="1" vertex="1">
          <mxGeometry x="490" y="400" width="140" height="65" as="geometry" />
        </mxCell>
        <mxCell id="KKVsU4eMc3JYL8btH_r8-101" style="edgeStyle=orthogonalEdgeStyle;rounded=0;orthogonalLoop=1;jettySize=auto;html=1;exitX=1;exitY=0.5;exitDx=0;exitDy=0;strokeColor=#808080;" parent="1" source="KKVsU4eMc3JYL8btH_r8-86" target="KKVsU4eMc3JYL8btH_r8-100" edge="1">
          <mxGeometry relative="1" as="geometry">
            <mxPoint x="1160" y="367.5" as="sourcePoint" />
          </mxGeometry>
        </mxCell>
        <mxCell id="KKVsU4eMc3JYL8btH_r8-140" value="" style="edgeStyle=orthogonalEdgeStyle;rounded=0;orthogonalLoop=1;jettySize=auto;html=1;exitX=0;exitY=0.25;exitDx=0;exitDy=0;entryX=1;entryY=0.5;entryDx=0;entryDy=0;jumpStyle=arc;strokeColor=#808080;" parent="1" source="KKVsU4eMc3JYL8btH_r8-141" target="KKVsU4eMc3JYL8btH_r8-142" edge="1">
          <mxGeometry relative="1" as="geometry">
            <mxPoint x="285.1299999999999" y="832.4999999999999" as="sourcePoint" />
          </mxGeometry>
        </mxCell>
        <mxCell id="KKVsU4eMc3JYL8btH_r8-141" value="&lt;b style=&quot;border-color: var(--border-color); font-size: 11px;&quot;&gt;CareTeam&lt;/b&gt;&lt;font style=&quot;border-color: var(--border-color); font-size: 11px;&quot; color=&quot;#808080&quot;&gt;&lt;br style=&quot;border-color: var(--border-color);&quot;&gt;&lt;/font&gt;&lt;font style=&quot;border-color: var(--border-color); font-size: 10px;&quot;&gt;uri: org-A.nl/CareTeam/ct1&lt;/font&gt;" style="rounded=1;whiteSpace=wrap;html=1;verticalAlign=top;spacingTop=10;fillColor=#dae8fc;strokeColor=#6c8ebf;" parent="1" vertex="1">
          <mxGeometry x="285" y="842.5" width="140" height="65" as="geometry" />
        </mxCell>
        <mxCell id="KKVsU4eMc3JYL8btH_r8-142" value="&lt;b style=&quot;border-color: var(--border-color); font-size: 11px;&quot;&gt;Patient&lt;/b&gt;&lt;font style=&quot;border-color: var(--border-color); font-size: 11px;&quot; color=&quot;#808080&quot;&gt;&lt;br style=&quot;border-color: var(--border-color);&quot;&gt;&lt;/font&gt;&lt;font style=&quot;border-color: var(--border-color); font-size: 10px;&quot;&gt;uri: org-A.nl/Patient/patP&lt;/font&gt;" style="rounded=1;whiteSpace=wrap;html=1;verticalAlign=top;spacingTop=10;" parent="1" vertex="1">
          <mxGeometry x="60" y="667.5" width="140" height="65" as="geometry" />
        </mxCell>
        <mxCell id="KKVsU4eMc3JYL8btH_r8-143" style="edgeStyle=orthogonalEdgeStyle;rounded=0;orthogonalLoop=1;jettySize=auto;html=1;entryX=0.5;entryY=0;entryDx=0;entryDy=0;strokeColor=#808080;" parent="1" source="KKVsU4eMc3JYL8btH_r8-145" target="KKVsU4eMc3JYL8btH_r8-146" edge="1">
          <mxGeometry relative="1" as="geometry" />
        </mxCell>
        <mxCell id="KKVsU4eMc3JYL8btH_r8-144" value="recorder" style="edgeLabel;html=1;align=center;verticalAlign=middle;resizable=0;points=[];" parent="KKVsU4eMc3JYL8btH_r8-143" vertex="1" connectable="0">
          <mxGeometry x="-0.2678" y="-2" relative="1" as="geometry">
            <mxPoint x="-32" y="-10" as="offset" />
          </mxGeometry>
        </mxCell>
        <mxCell id="KKVsU4eMc3JYL8btH_r8-145" value="&lt;b style=&quot;border-color: var(--border-color); font-size: 11px;&quot;&gt;Condition&lt;/b&gt;&lt;font style=&quot;border-color: var(--border-color); font-size: 11px;&quot; color=&quot;#808080&quot;&gt;&lt;br style=&quot;border-color: var(--border-color);&quot;&gt;&lt;/font&gt;&lt;font style=&quot;border-color: var(--border-color); font-size: 10px;&quot;&gt;uri: org-A.nl/Condition/con1&lt;br style=&quot;border-color: var(--border-color);&quot;&gt;code: Diabetes Mellitus II&lt;/font&gt;" style="rounded=1;whiteSpace=wrap;html=1;verticalAlign=top;spacingTop=10;" parent="1" vertex="1">
          <mxGeometry x="60" y="757.5" width="140" height="65" as="geometry" />
        </mxCell>
        <mxCell id="KKVsU4eMc3JYL8btH_r8-146" value="&lt;b style=&quot;border-color: var(--border-color); font-size: 11px;&quot;&gt;Practitioner&lt;/b&gt;&lt;font style=&quot;border-color: var(--border-color); font-size: 11px;&quot; color=&quot;#808080&quot;&gt;&lt;br style=&quot;border-color: var(--border-color);&quot;&gt;&lt;/font&gt;&lt;font style=&quot;border-color: var(--border-color); font-size: 10px;&quot;&gt;uri: org-A.nl/Practitioner/prA&lt;/font&gt;" style="rounded=1;whiteSpace=wrap;html=1;verticalAlign=top;spacingTop=10;" parent="1" vertex="1">
          <mxGeometry x="60" y="847.5" width="140" height="65" as="geometry" />
        </mxCell>
        <mxCell id="KKVsU4eMc3JYL8btH_r8-147" style="edgeStyle=orthogonalEdgeStyle;rounded=0;orthogonalLoop=1;jettySize=auto;html=1;exitX=0.5;exitY=0;exitDx=0;exitDy=0;entryX=0.5;entryY=1;entryDx=0;entryDy=0;strokeColor=#808080;" parent="1" source="KKVsU4eMc3JYL8btH_r8-145" target="KKVsU4eMc3JYL8btH_r8-142" edge="1">
          <mxGeometry relative="1" as="geometry">
            <mxPoint x="560" y="922.4999999999999" as="sourcePoint" />
          </mxGeometry>
        </mxCell>
        <mxCell id="KKVsU4eMc3JYL8btH_r8-148" value="subject" style="edgeLabel;html=1;align=center;verticalAlign=middle;resizable=0;points=[];" parent="KKVsU4eMc3JYL8btH_r8-147" vertex="1" connectable="0">
          <mxGeometry x="0.635" y="-1" relative="1" as="geometry">
            <mxPoint x="-21" y="11" as="offset" />
          </mxGeometry>
        </mxCell>
        <mxCell id="KKVsU4eMc3JYL8btH_r8-149" style="edgeStyle=orthogonalEdgeStyle;rounded=0;orthogonalLoop=1;jettySize=auto;html=1;exitX=0;exitY=0.75;exitDx=0;exitDy=0;entryX=1;entryY=0.5;entryDx=0;entryDy=0;jumpStyle=arc;strokeColor=#808080;" parent="1" source="KKVsU4eMc3JYL8btH_r8-155" target="KKVsU4eMc3JYL8btH_r8-145" edge="1">
          <mxGeometry relative="1" as="geometry">
            <mxPoint x="130" y="1017.5" as="targetPoint" />
          </mxGeometry>
        </mxCell>
        <mxCell id="KKVsU4eMc3JYL8btH_r8-150" value="adresses" style="edgeLabel;html=1;align=center;verticalAlign=middle;resizable=0;points=[];labelBackgroundColor=#FFFFFF;" parent="KKVsU4eMc3JYL8btH_r8-149" vertex="1" connectable="0">
          <mxGeometry x="0.1987" y="-1" relative="1" as="geometry">
            <mxPoint x="2" y="12" as="offset" />
          </mxGeometry>
        </mxCell>
        <mxCell id="KKVsU4eMc3JYL8btH_r8-151" style="edgeStyle=orthogonalEdgeStyle;rounded=0;orthogonalLoop=1;jettySize=auto;html=1;exitX=0.5;exitY=1;exitDx=0;exitDy=0;entryX=0.5;entryY=0;entryDx=0;entryDy=0;strokeColor=#808080;" parent="1" source="KKVsU4eMc3JYL8btH_r8-155" target="KKVsU4eMc3JYL8btH_r8-141" edge="1">
          <mxGeometry relative="1" as="geometry">
            <mxPoint x="329.9999999999998" y="807.5" as="sourcePoint" />
            <mxPoint x="354.9999999999998" y="832.4999999999999" as="targetPoint" />
          </mxGeometry>
        </mxCell>
        <mxCell id="KKVsU4eMc3JYL8btH_r8-152" value="careTeam" style="edgeLabel;html=1;align=center;verticalAlign=middle;resizable=0;points=[];" parent="KKVsU4eMc3JYL8btH_r8-151" vertex="1" connectable="0">
          <mxGeometry x="-0.1712" relative="1" as="geometry">
            <mxPoint x="-26" y="-2" as="offset" />
          </mxGeometry>
        </mxCell>
        <mxCell id="KKVsU4eMc3JYL8btH_r8-153" style="edgeStyle=orthogonalEdgeStyle;rounded=0;orthogonalLoop=1;jettySize=auto;html=1;exitX=0.5;exitY=0;exitDx=0;exitDy=0;entryX=1;entryY=0.5;entryDx=0;entryDy=0;strokeColor=#808080;" parent="1" source="KKVsU4eMc3JYL8btH_r8-155" target="KKVsU4eMc3JYL8btH_r8-142" edge="1">
          <mxGeometry relative="1" as="geometry" />
        </mxCell>
        <mxCell id="KKVsU4eMc3JYL8btH_r8-154" value="subject" style="edgeLabel;html=1;align=center;verticalAlign=middle;resizable=0;points=[];" parent="KKVsU4eMc3JYL8btH_r8-153" vertex="1" connectable="0">
          <mxGeometry x="-0.3514" relative="1" as="geometry">
            <mxPoint x="-66" y="8" as="offset" />
          </mxGeometry>
        </mxCell>
        <mxCell id="KKVsU4eMc3JYL8btH_r8-155" value="&lt;font style=&quot;&quot;&gt;&lt;b style=&quot;font-size: 11px;&quot;&gt;CarePlan&lt;/b&gt;&lt;font style=&quot;font-size: 11px;&quot; color=&quot;#808080&quot;&gt;&lt;br style=&quot;font-size: 11px;&quot;&gt;&lt;/font&gt;&lt;font style=&quot;font-size: 10px;&quot;&gt;uri: org-A.nl/CarePlan/cp1&lt;br&gt;&lt;/font&gt;&lt;br style=&quot;font-size: 11px;&quot;&gt;&lt;/font&gt;" style="rounded=1;whiteSpace=wrap;html=1;verticalAlign=top;spacingTop=2;fontSize=11;" parent="1" vertex="1">
          <mxGeometry x="270" y="730.5" width="170" height="80" as="geometry" />
        </mxCell>
        <mxCell id="KKVsU4eMc3JYL8btH_r8-173" style="edgeStyle=orthogonalEdgeStyle;rounded=0;orthogonalLoop=1;jettySize=auto;html=1;exitX=0.5;exitY=1;exitDx=0;exitDy=0;entryX=0;entryY=0.5;entryDx=0;entryDy=0;strokeColor=#808080;" parent="1" source="KKVsU4eMc3JYL8btH_r8-156" target="KKVsU4eMc3JYL8btH_r8-168" edge="1">
          <mxGeometry relative="1" as="geometry" />
        </mxCell>
        <mxCell id="KKVsU4eMc3JYL8btH_r8-175" value="role: surgeon&lt;br style=&quot;border-color: var(--border-color);&quot;&gt;start: 1/2/23" style="edgeLabel;html=1;align=center;verticalAlign=middle;resizable=0;points=[];" parent="KKVsU4eMc3JYL8btH_r8-173" vertex="1" connectable="0">
          <mxGeometry x="-0.4579" relative="1" as="geometry">
            <mxPoint x="49" y="12" as="offset" />
          </mxGeometry>
        </mxCell>
        <mxCell id="KKVsU4eMc3JYL8btH_r8-156" value="&lt;font style=&quot;&quot;&gt;&lt;font style=&quot;font-size: 10px;&quot;&gt;members&lt;/font&gt;&lt;br&gt;&lt;/font&gt;" style="rounded=1;whiteSpace=wrap;html=1;verticalAlign=middle;spacingTop=0;spacing=0;fillColor=none;" parent="1" vertex="1">
          <mxGeometry x="316" y="890.5" width="75" height="13" as="geometry" />
        </mxCell>
        <mxCell id="KKVsU4eMc3JYL8btH_r8-157" value="&lt;font style=&quot;&quot;&gt;&lt;font style=&quot;font-size: 10px;&quot;&gt;activities&lt;/font&gt;&lt;br&gt;&lt;/font&gt;" style="rounded=1;whiteSpace=wrap;html=1;verticalAlign=middle;spacingTop=0;spacing=0;fillColor=none;" parent="1" vertex="1">
          <mxGeometry x="317.5" y="790.5" width="75" height="13" as="geometry" />
        </mxCell>
        <mxCell id="KKVsU4eMc3JYL8btH_r8-158" value="" style="edgeStyle=orthogonalEdgeStyle;rounded=0;orthogonalLoop=1;jettySize=auto;html=1;exitX=0;exitY=0.5;exitDx=0;exitDy=0;entryX=1;entryY=0.75;entryDx=0;entryDy=0;strokeColor=#808080;" parent="1" source="KKVsU4eMc3JYL8btH_r8-156" target="KKVsU4eMc3JYL8btH_r8-146" edge="1">
          <mxGeometry relative="1" as="geometry">
            <mxPoint x="440" y="731.5" as="sourcePoint" />
            <mxPoint x="200" y="880.5" as="targetPoint" />
          </mxGeometry>
        </mxCell>
        <mxCell id="KKVsU4eMc3JYL8btH_r8-174" value="role: gp&lt;br&gt;start: 1/1/23" style="edgeLabel;html=1;align=center;verticalAlign=middle;resizable=0;points=[];" parent="KKVsU4eMc3JYL8btH_r8-158" vertex="1" connectable="0">
          <mxGeometry x="0.3859" relative="1" as="geometry">
            <mxPoint x="14" y="7" as="offset" />
          </mxGeometry>
        </mxCell>
        <mxCell id="KKVsU4eMc3JYL8btH_r8-159" style="edgeStyle=orthogonalEdgeStyle;rounded=0;orthogonalLoop=1;jettySize=auto;html=1;exitX=1;exitY=0.5;exitDx=0;exitDy=0;entryX=0;entryY=0.5;entryDx=0;entryDy=0;strokeColor=#808080;" parent="1" source="KKVsU4eMc3JYL8btH_r8-161" target="KKVsU4eMc3JYL8btH_r8-162" edge="1">
          <mxGeometry relative="1" as="geometry" />
        </mxCell>
        <mxCell id="KKVsU4eMc3JYL8btH_r8-160" style="edgeStyle=orthogonalEdgeStyle;rounded=0;orthogonalLoop=1;jettySize=auto;html=1;exitX=1;exitY=0.5;exitDx=0;exitDy=0;entryX=0;entryY=0.5;entryDx=0;entryDy=0;strokeColor=#808080;" parent="1" source="KKVsU4eMc3JYL8btH_r8-161" target="KKVsU4eMc3JYL8btH_r8-163" edge="1">
          <mxGeometry relative="1" as="geometry" />
        </mxCell>
        <mxCell id="KKVsU4eMc3JYL8btH_r8-161" value="&lt;font style=&quot;&quot;&gt;&lt;font style=&quot;font-size: 10px;&quot;&gt;supportingInfo&lt;/font&gt;&lt;br&gt;&lt;/font&gt;" style="rounded=1;whiteSpace=wrap;html=1;verticalAlign=middle;spacingTop=0;spacing=0;fillColor=none;" parent="1" vertex="1">
          <mxGeometry x="316" y="769" width="75" height="13" as="geometry" />
        </mxCell>
        <mxCell id="KKVsU4eMc3JYL8btH_r8-162" value="&lt;b style=&quot;border-color: var(--border-color); font-size: 11px;&quot;&gt;Condition&lt;/b&gt;&lt;font style=&quot;border-color: var(--border-color); font-size: 11px;&quot; color=&quot;#808080&quot;&gt;&lt;br style=&quot;border-color: var(--border-color);&quot;&gt;&lt;/font&gt;&lt;font style=&quot;border-color: var(--border-color); font-size: 10px;&quot;&gt;uri: org-A.nl/Condition/con1&lt;br style=&quot;border-color: var(--border-color);&quot;&gt;code: hypertensie&lt;/font&gt;" style="rounded=1;whiteSpace=wrap;html=1;verticalAlign=top;spacingTop=10;" parent="1" vertex="1">
          <mxGeometry x="480" y="640" width="140" height="65" as="geometry" />
        </mxCell>
        <mxCell id="KKVsU4eMc3JYL8btH_r8-163" value="&lt;b style=&quot;border-color: var(--border-color); font-size: 11px;&quot;&gt;MedicationRequest&lt;/b&gt;&lt;font style=&quot;border-color: var(--border-color); font-size: 11px;&quot; color=&quot;#808080&quot;&gt;&lt;br style=&quot;border-color: var(--border-color);&quot;&gt;&lt;/font&gt;&lt;font style=&quot;border-color: var(--border-color); font-size: 10px;&quot;&gt;uri: org-A.nl/ MedicationRequest/mr1&lt;/font&gt;" style="rounded=1;whiteSpace=wrap;html=1;verticalAlign=top;spacingTop=10;" parent="1" vertex="1">
          <mxGeometry x="480" y="717" width="140" height="65" as="geometry" />
        </mxCell>
        <mxCell id="KKVsU4eMc3JYL8btH_r8-166" style="edgeStyle=orthogonalEdgeStyle;rounded=0;orthogonalLoop=1;jettySize=auto;html=1;exitX=0.25;exitY=1;exitDx=0;exitDy=0;entryX=0.5;entryY=1;entryDx=0;entryDy=0;strokeColor=#808080;" parent="1" source="KKVsU4eMc3JYL8btH_r8-171" target="KKVsU4eMc3JYL8btH_r8-146" edge="1">
          <mxGeometry relative="1" as="geometry">
            <mxPoint x="1040.0000000000002" y="664" as="sourcePoint" />
            <mxPoint x="1327" y="792" as="targetPoint" />
            <Array as="points">
              <mxPoint x="515" y="937.5" />
              <mxPoint x="130" y="937.5" />
            </Array>
          </mxGeometry>
        </mxCell>
        <mxCell id="KKVsU4eMc3JYL8btH_r8-167" value="requestor" style="edgeLabel;html=1;align=center;verticalAlign=middle;resizable=0;points=[];" parent="KKVsU4eMc3JYL8btH_r8-166" vertex="1" connectable="0">
          <mxGeometry x="0.2856" relative="1" as="geometry">
            <mxPoint x="-8" as="offset" />
          </mxGeometry>
        </mxCell>
        <mxCell id="KKVsU4eMc3JYL8btH_r8-168" value="&lt;b style=&quot;border-color: var(--border-color); font-size: 11px;&quot;&gt;CareTeam&lt;/b&gt;&lt;font style=&quot;border-color: var(--border-color); font-size: 11px;&quot; color=&quot;#808080&quot;&gt;&lt;br style=&quot;border-color: var(--border-color);&quot;&gt;&lt;/font&gt;&lt;font style=&quot;font-size: 10px;&quot;&gt;uri: org-B.nl/ Organization/snijteam&lt;/font&gt;&lt;span style=&quot;font-size: 14px;&quot;&gt;&lt;br&gt;&lt;/span&gt;" style="rounded=1;whiteSpace=wrap;html=1;verticalAlign=top;spacingTop=2;" parent="1" vertex="1">
          <mxGeometry x="480" y="957.5" width="140" height="65" as="geometry" />
        </mxCell>
        <mxCell id="KKVsU4eMc3JYL8btH_r8-169" style="edgeStyle=orthogonalEdgeStyle;rounded=0;orthogonalLoop=1;jettySize=auto;html=1;entryX=0.5;entryY=0;entryDx=0;entryDy=0;strokeColor=#808080;" parent="1" source="KKVsU4eMc3JYL8btH_r8-171" target="KKVsU4eMc3JYL8btH_r8-168" edge="1">
          <mxGeometry relative="1" as="geometry" />
        </mxCell>
        <mxCell id="KKVsU4eMc3JYL8btH_r8-170" value="owner" style="edgeLabel;html=1;align=center;verticalAlign=middle;resizable=0;points=[];" parent="KKVsU4eMc3JYL8btH_r8-169" vertex="1" connectable="0">
          <mxGeometry x="-0.6051" y="1" relative="1" as="geometry">
            <mxPoint x="-1" y="6" as="offset" />
          </mxGeometry>
        </mxCell>
        <mxCell id="KKVsU4eMc3JYL8btH_r8-171" value="&lt;font style=&quot;font-size: 10px;&quot;&gt;&lt;b style=&quot;font-size: 11px;&quot;&gt;Task&lt;/b&gt;&lt;font style=&quot;font-size: 11px;&quot; color=&quot;#808080&quot;&gt;&lt;br style=&quot;font-size: 11px;&quot;&gt;&lt;/font&gt;uri: org-A.nl/Task/task1&lt;br style=&quot;&quot;&gt;code:&amp;nbsp;amputation&lt;br&gt;status: accepted&lt;br style=&quot;font-size: 11px;&quot;&gt;&lt;br style=&quot;font-size: 11px;&quot;&gt;&lt;/font&gt;" style="rounded=1;whiteSpace=wrap;html=1;verticalAlign=top;spacingTop=2;fontSize=11;fillColor=#dae8fc;strokeColor=#6c8ebf;" parent="1" vertex="1">
          <mxGeometry x="480" y="847.5" width="140" height="65" as="geometry" />
        </mxCell>
        <mxCell id="KKVsU4eMc3JYL8btH_r8-172" style="edgeStyle=orthogonalEdgeStyle;rounded=0;orthogonalLoop=1;jettySize=auto;html=1;exitX=1;exitY=0.5;exitDx=0;exitDy=0;strokeColor=#808080;" parent="1" source="KKVsU4eMc3JYL8btH_r8-157" target="KKVsU4eMc3JYL8btH_r8-171" edge="1">
          <mxGeometry relative="1" as="geometry">
            <mxPoint x="1150" y="815" as="sourcePoint" />
          </mxGeometry>
        </mxCell>
        <mxCell id="KKVsU4eMc3JYL8btH_r8-184" value="" style="edgeStyle=orthogonalEdgeStyle;rounded=0;orthogonalLoop=1;jettySize=auto;html=1;exitX=0;exitY=0.25;exitDx=0;exitDy=0;entryX=1;entryY=0.5;entryDx=0;entryDy=0;jumpStyle=arc;strokeColor=#808080;" parent="1" source="KKVsU4eMc3JYL8btH_r8-185" target="KKVsU4eMc3JYL8btH_r8-186" edge="1">
          <mxGeometry relative="1" as="geometry">
            <mxPoint x="295.1299999999999" y="42.499999999999886" as="sourcePoint" />
          </mxGeometry>
        </mxCell>
        <mxCell id="KKVsU4eMc3JYL8btH_r8-185" value="&lt;b style=&quot;border-color: var(--border-color); font-size: 11px;&quot;&gt;CareTeam&lt;/b&gt;&lt;font style=&quot;border-color: var(--border-color); font-size: 11px;&quot; color=&quot;#808080&quot;&gt;&lt;br style=&quot;border-color: var(--border-color);&quot;&gt;&lt;/font&gt;&lt;font style=&quot;border-color: var(--border-color); font-size: 10px;&quot;&gt;uri: org-A.nl/CareTeam/ct1&lt;/font&gt;" style="rounded=1;whiteSpace=wrap;html=1;verticalAlign=top;spacingTop=10;fillColor=#d5e8d4;strokeColor=#82b366;" parent="1" vertex="1">
          <mxGeometry x="295" y="52.5" width="140" height="65" as="geometry" />
        </mxCell>
        <mxCell id="KKVsU4eMc3JYL8btH_r8-186" value="&lt;b style=&quot;border-color: var(--border-color); font-size: 11px;&quot;&gt;Patient&lt;/b&gt;&lt;font style=&quot;border-color: var(--border-color); font-size: 11px;&quot; color=&quot;#808080&quot;&gt;&lt;br style=&quot;border-color: var(--border-color);&quot;&gt;&lt;/font&gt;&lt;font style=&quot;border-color: var(--border-color); font-size: 10px;&quot;&gt;uri: org-A.nl/Patient/patP&lt;/font&gt;" style="rounded=1;whiteSpace=wrap;html=1;verticalAlign=top;spacingTop=10;" parent="1" vertex="1">
          <mxGeometry x="70" y="-122.5" width="140" height="65" as="geometry" />
        </mxCell>
        <mxCell id="KKVsU4eMc3JYL8btH_r8-187" style="edgeStyle=orthogonalEdgeStyle;rounded=0;orthogonalLoop=1;jettySize=auto;html=1;entryX=0.5;entryY=0;entryDx=0;entryDy=0;strokeColor=#808080;" parent="1" source="KKVsU4eMc3JYL8btH_r8-189" target="KKVsU4eMc3JYL8btH_r8-190" edge="1">
          <mxGeometry relative="1" as="geometry" />
        </mxCell>
        <mxCell id="KKVsU4eMc3JYL8btH_r8-188" value="recorder" style="edgeLabel;html=1;align=center;verticalAlign=middle;resizable=0;points=[];" parent="KKVsU4eMc3JYL8btH_r8-187" vertex="1" connectable="0">
          <mxGeometry x="-0.2678" y="-2" relative="1" as="geometry">
            <mxPoint x="-32" y="-10" as="offset" />
          </mxGeometry>
        </mxCell>
        <mxCell id="KKVsU4eMc3JYL8btH_r8-189" value="&lt;b style=&quot;border-color: var(--border-color); font-size: 11px;&quot;&gt;Condition&lt;/b&gt;&lt;font style=&quot;border-color: var(--border-color); font-size: 11px;&quot; color=&quot;#808080&quot;&gt;&lt;br style=&quot;border-color: var(--border-color);&quot;&gt;&lt;/font&gt;&lt;font style=&quot;border-color: var(--border-color); font-size: 10px;&quot;&gt;uri: org-A.nl/Condition/con1&lt;br style=&quot;border-color: var(--border-color);&quot;&gt;code: Diabetes Mellitus II&lt;/font&gt;" style="rounded=1;whiteSpace=wrap;html=1;verticalAlign=top;spacingTop=10;fillColor=#d5e8d4;strokeColor=#82b366;" parent="1" vertex="1">
          <mxGeometry x="70" y="-32.5" width="140" height="65" as="geometry" />
        </mxCell>
        <mxCell id="KKVsU4eMc3JYL8btH_r8-190" value="&lt;b style=&quot;border-color: var(--border-color); font-size: 11px;&quot;&gt;Practitioner&lt;/b&gt;&lt;font style=&quot;border-color: var(--border-color); font-size: 11px;&quot; color=&quot;#808080&quot;&gt;&lt;br style=&quot;border-color: var(--border-color);&quot;&gt;&lt;/font&gt;&lt;font style=&quot;border-color: var(--border-color); font-size: 10px;&quot;&gt;uri: org-A.nl/Practitioner/prA&lt;/font&gt;" style="rounded=1;whiteSpace=wrap;html=1;verticalAlign=top;spacingTop=10;" parent="1" vertex="1">
          <mxGeometry x="70" y="57.5" width="140" height="65" as="geometry" />
        </mxCell>
        <mxCell id="KKVsU4eMc3JYL8btH_r8-191" style="edgeStyle=orthogonalEdgeStyle;rounded=0;orthogonalLoop=1;jettySize=auto;html=1;exitX=0.5;exitY=0;exitDx=0;exitDy=0;entryX=0.5;entryY=1;entryDx=0;entryDy=0;strokeColor=#808080;" parent="1" source="KKVsU4eMc3JYL8btH_r8-189" target="KKVsU4eMc3JYL8btH_r8-186" edge="1">
          <mxGeometry relative="1" as="geometry">
            <mxPoint x="570" y="132.4999999999999" as="sourcePoint" />
          </mxGeometry>
        </mxCell>
        <mxCell id="KKVsU4eMc3JYL8btH_r8-192" value="subject" style="edgeLabel;html=1;align=center;verticalAlign=middle;resizable=0;points=[];" parent="KKVsU4eMc3JYL8btH_r8-191" vertex="1" connectable="0">
          <mxGeometry x="0.635" y="-1" relative="1" as="geometry">
            <mxPoint x="-21" y="11" as="offset" />
          </mxGeometry>
        </mxCell>
        <mxCell id="KKVsU4eMc3JYL8btH_r8-193" style="edgeStyle=orthogonalEdgeStyle;rounded=0;orthogonalLoop=1;jettySize=auto;html=1;exitX=0;exitY=0.75;exitDx=0;exitDy=0;entryX=1;entryY=0.5;entryDx=0;entryDy=0;jumpStyle=arc;strokeColor=#808080;" parent="1" source="KKVsU4eMc3JYL8btH_r8-199" target="KKVsU4eMc3JYL8btH_r8-189" edge="1">
          <mxGeometry relative="1" as="geometry">
            <mxPoint x="140" y="227.5" as="targetPoint" />
          </mxGeometry>
        </mxCell>
        <mxCell id="KKVsU4eMc3JYL8btH_r8-194" value="adresses" style="edgeLabel;html=1;align=center;verticalAlign=middle;resizable=0;points=[];labelBackgroundColor=#FFFFFF;" parent="KKVsU4eMc3JYL8btH_r8-193" vertex="1" connectable="0">
          <mxGeometry x="0.1987" y="-1" relative="1" as="geometry">
            <mxPoint x="2" y="12" as="offset" />
          </mxGeometry>
        </mxCell>
        <mxCell id="KKVsU4eMc3JYL8btH_r8-195" style="edgeStyle=orthogonalEdgeStyle;rounded=0;orthogonalLoop=1;jettySize=auto;html=1;exitX=0.5;exitY=1;exitDx=0;exitDy=0;entryX=0.5;entryY=0;entryDx=0;entryDy=0;strokeColor=#808080;" parent="1" source="KKVsU4eMc3JYL8btH_r8-199" target="KKVsU4eMc3JYL8btH_r8-185" edge="1">
          <mxGeometry relative="1" as="geometry">
            <mxPoint x="339.9999999999998" y="17.5" as="sourcePoint" />
            <mxPoint x="364.9999999999998" y="42.499999999999886" as="targetPoint" />
          </mxGeometry>
        </mxCell>
        <mxCell id="KKVsU4eMc3JYL8btH_r8-196" value="careTeam" style="edgeLabel;html=1;align=center;verticalAlign=middle;resizable=0;points=[];" parent="KKVsU4eMc3JYL8btH_r8-195" vertex="1" connectable="0">
          <mxGeometry x="-0.1712" relative="1" as="geometry">
            <mxPoint x="-26" y="-2" as="offset" />
          </mxGeometry>
        </mxCell>
        <mxCell id="KKVsU4eMc3JYL8btH_r8-197" style="edgeStyle=orthogonalEdgeStyle;rounded=0;orthogonalLoop=1;jettySize=auto;html=1;exitX=0.5;exitY=0;exitDx=0;exitDy=0;entryX=1;entryY=0.5;entryDx=0;entryDy=0;strokeColor=#808080;" parent="1" source="KKVsU4eMc3JYL8btH_r8-199" target="KKVsU4eMc3JYL8btH_r8-186" edge="1">
          <mxGeometry relative="1" as="geometry" />
        </mxCell>
        <mxCell id="KKVsU4eMc3JYL8btH_r8-198" value="subject" style="edgeLabel;html=1;align=center;verticalAlign=middle;resizable=0;points=[];" parent="KKVsU4eMc3JYL8btH_r8-197" vertex="1" connectable="0">
          <mxGeometry x="-0.3514" relative="1" as="geometry">
            <mxPoint x="-66" y="8" as="offset" />
          </mxGeometry>
        </mxCell>
        <mxCell id="KKVsU4eMc3JYL8btH_r8-199" value="&lt;font style=&quot;&quot;&gt;&lt;b style=&quot;font-size: 11px;&quot;&gt;CarePlan&lt;/b&gt;&lt;font style=&quot;font-size: 11px;&quot; color=&quot;#808080&quot;&gt;&lt;br style=&quot;font-size: 11px;&quot;&gt;&lt;/font&gt;&lt;font style=&quot;font-size: 10px;&quot;&gt;uri: org-A.nl/CarePlan/cp1&lt;br&gt;&lt;/font&gt;&lt;br style=&quot;font-size: 11px;&quot;&gt;&lt;/font&gt;" style="rounded=1;whiteSpace=wrap;html=1;verticalAlign=top;spacingTop=2;fontSize=11;fillColor=#d5e8d4;strokeColor=#82b366;" parent="1" vertex="1">
          <mxGeometry x="280" y="-59.5" width="170" height="80" as="geometry" />
        </mxCell>
        <mxCell id="KKVsU4eMc3JYL8btH_r8-200" value="&lt;font style=&quot;&quot;&gt;&lt;font style=&quot;font-size: 10px;&quot;&gt;members&lt;/font&gt;&lt;br&gt;&lt;/font&gt;" style="rounded=1;whiteSpace=wrap;html=1;verticalAlign=middle;spacingTop=0;spacing=0;fillColor=none;" parent="1" vertex="1">
          <mxGeometry x="326" y="100.5" width="75" height="13" as="geometry" />
        </mxCell>
        <mxCell id="KKVsU4eMc3JYL8btH_r8-201" value="&lt;font style=&quot;&quot;&gt;&lt;font style=&quot;font-size: 10px;&quot;&gt;activities&lt;/font&gt;&lt;br&gt;&lt;/font&gt;" style="rounded=1;whiteSpace=wrap;html=1;verticalAlign=middle;spacingTop=0;spacing=0;fillColor=none;" parent="1" vertex="1">
          <mxGeometry x="327.5" y="0.5" width="75" height="13" as="geometry" />
        </mxCell>
        <mxCell id="KKVsU4eMc3JYL8btH_r8-202" value="" style="edgeStyle=orthogonalEdgeStyle;rounded=0;orthogonalLoop=1;jettySize=auto;html=1;exitX=0;exitY=0.5;exitDx=0;exitDy=0;entryX=1;entryY=0.75;entryDx=0;entryDy=0;strokeColor=#808080;" parent="1" source="KKVsU4eMc3JYL8btH_r8-200" target="KKVsU4eMc3JYL8btH_r8-190" edge="1">
          <mxGeometry relative="1" as="geometry">
            <mxPoint x="450" y="-58.5" as="sourcePoint" />
            <mxPoint x="210" y="90.5" as="targetPoint" />
          </mxGeometry>
        </mxCell>
        <mxCell id="KKVsU4eMc3JYL8btH_r8-203" value="role: gp&lt;br style=&quot;border-color: var(--border-color);&quot;&gt;start: 1/1/23" style="edgeLabel;html=1;align=center;verticalAlign=middle;resizable=0;points=[];" parent="KKVsU4eMc3JYL8btH_r8-202" vertex="1" connectable="0">
          <mxGeometry x="0.4037" relative="1" as="geometry">
            <mxPoint x="15" y="7" as="offset" />
          </mxGeometry>
        </mxCell>
        <mxCell id="KKVsU4eMc3JYL8btH_r8-204" value="&lt;font style=&quot;&quot;&gt;&lt;font style=&quot;font-size: 10px;&quot;&gt;supportingInfo&lt;/font&gt;&lt;br&gt;&lt;/font&gt;" style="rounded=1;whiteSpace=wrap;html=1;verticalAlign=middle;spacingTop=0;spacing=0;fillColor=none;" parent="1" vertex="1">
          <mxGeometry x="326" y="-21" width="75" height="13" as="geometry" />
        </mxCell>
        <mxCell id="KKVsU4eMc3JYL8btH_r8-206" value="&lt;b style=&quot;border-color: var(--border-color); font-size: 11px;&quot;&gt;MedicationRequest&lt;/b&gt;&lt;font style=&quot;border-color: var(--border-color); font-size: 11px;&quot; color=&quot;#808080&quot;&gt;&lt;br style=&quot;border-color: var(--border-color);&quot;&gt;&lt;/font&gt;&lt;font style=&quot;border-color: var(--border-color); font-size: 10px;&quot;&gt;uri: org-A.nl/ MedicationRequest/mr1&lt;/font&gt;" style="rounded=1;whiteSpace=wrap;html=1;verticalAlign=top;spacingTop=10;" parent="1" vertex="1">
          <mxGeometry x="490" y="-73" width="140" height="65" as="geometry" />
        </mxCell>
        <mxCell id="KKVsU4eMc3JYL8btH_r8-207" value="&lt;b style=&quot;border-color: var(--border-color); font-size: 11px;&quot;&gt;Condition&lt;/b&gt;&lt;font style=&quot;border-color: var(--border-color); font-size: 11px;&quot; color=&quot;#808080&quot;&gt;&lt;br style=&quot;border-color: var(--border-color);&quot;&gt;&lt;/font&gt;&lt;font style=&quot;font-size: 10px;&quot;&gt;uri: org-A.nl/Condition/con1&lt;br&gt;code: hypertensie&lt;br&gt;&lt;/font&gt;" style="rounded=1;whiteSpace=wrap;html=1;verticalAlign=top;spacingTop=10;" parent="1" vertex="1">
          <mxGeometry x="490" y="-150" width="140" height="65" as="geometry" />
        </mxCell>
        <mxCell id="KKVsU4eMc3JYL8btH_r8-208" style="edgeStyle=orthogonalEdgeStyle;rounded=0;orthogonalLoop=1;jettySize=auto;html=1;exitX=1;exitY=0.5;exitDx=0;exitDy=0;entryX=0;entryY=0.5;entryDx=0;entryDy=0;strokeColor=#808080;" parent="1" source="KKVsU4eMc3JYL8btH_r8-204" target="KKVsU4eMc3JYL8btH_r8-207" edge="1">
          <mxGeometry relative="1" as="geometry" />
        </mxCell>
        <mxCell id="KKVsU4eMc3JYL8btH_r8-209" style="edgeStyle=orthogonalEdgeStyle;rounded=0;orthogonalLoop=1;jettySize=auto;html=1;exitX=1;exitY=0.5;exitDx=0;exitDy=0;entryX=0;entryY=0.5;entryDx=0;entryDy=0;strokeColor=#808080;" parent="1" source="KKVsU4eMc3JYL8btH_r8-204" target="KKVsU4eMc3JYL8btH_r8-206" edge="1">
          <mxGeometry relative="1" as="geometry" />
        </mxCell>
        <mxCell id="KKVsU4eMc3JYL8btH_r8-210" value="" style="edgeStyle=orthogonalEdgeStyle;rounded=0;orthogonalLoop=1;jettySize=auto;html=1;exitX=0;exitY=0.25;exitDx=0;exitDy=0;entryX=1;entryY=0.5;entryDx=0;entryDy=0;jumpStyle=arc;strokeColor=#808080;" parent="1" source="KKVsU4eMc3JYL8btH_r8-211" target="KKVsU4eMc3JYL8btH_r8-212" edge="1">
          <mxGeometry relative="1" as="geometry">
            <mxPoint x="285.1299999999999" y="1282.5" as="sourcePoint" />
          </mxGeometry>
        </mxCell>
        <mxCell id="KKVsU4eMc3JYL8btH_r8-211" value="&lt;b style=&quot;border-color: var(--border-color); font-size: 11px;&quot;&gt;CareTeam&lt;/b&gt;&lt;font style=&quot;border-color: var(--border-color); font-size: 11px;&quot; color=&quot;#808080&quot;&gt;&lt;br style=&quot;border-color: var(--border-color);&quot;&gt;&lt;/font&gt;&lt;font style=&quot;border-color: var(--border-color); font-size: 10px;&quot;&gt;uri: org-A.nl/CareTeam/ct1&lt;/font&gt;" style="rounded=1;whiteSpace=wrap;html=1;verticalAlign=top;spacingTop=10;fillColor=#dae8fc;strokeColor=#6c8ebf;" parent="1" vertex="1">
          <mxGeometry x="285" y="1292.5" width="140" height="65" as="geometry" />
        </mxCell>
        <mxCell id="KKVsU4eMc3JYL8btH_r8-212" value="&lt;b style=&quot;border-color: var(--border-color); font-size: 11px;&quot;&gt;Patient&lt;/b&gt;&lt;font style=&quot;border-color: var(--border-color); font-size: 11px;&quot; color=&quot;#808080&quot;&gt;&lt;br style=&quot;border-color: var(--border-color);&quot;&gt;&lt;/font&gt;&lt;font style=&quot;border-color: var(--border-color); font-size: 10px;&quot;&gt;uri: org-A.nl/Patient/patP&lt;/font&gt;" style="rounded=1;whiteSpace=wrap;html=1;verticalAlign=top;spacingTop=10;" parent="1" vertex="1">
          <mxGeometry x="60" y="1117.5" width="140" height="65" as="geometry" />
        </mxCell>
        <mxCell id="KKVsU4eMc3JYL8btH_r8-213" style="edgeStyle=orthogonalEdgeStyle;rounded=0;orthogonalLoop=1;jettySize=auto;html=1;entryX=0.5;entryY=0;entryDx=0;entryDy=0;strokeColor=#808080;" parent="1" source="KKVsU4eMc3JYL8btH_r8-215" target="KKVsU4eMc3JYL8btH_r8-216" edge="1">
          <mxGeometry relative="1" as="geometry" />
        </mxCell>
        <mxCell id="KKVsU4eMc3JYL8btH_r8-214" value="recorder" style="edgeLabel;html=1;align=center;verticalAlign=middle;resizable=0;points=[];" parent="KKVsU4eMc3JYL8btH_r8-213" vertex="1" connectable="0">
          <mxGeometry x="-0.2678" y="-2" relative="1" as="geometry">
            <mxPoint x="-32" y="-10" as="offset" />
          </mxGeometry>
        </mxCell>
        <mxCell id="KKVsU4eMc3JYL8btH_r8-215" value="&lt;b style=&quot;border-color: var(--border-color); font-size: 11px;&quot;&gt;Condition&lt;/b&gt;&lt;font style=&quot;border-color: var(--border-color); font-size: 11px;&quot; color=&quot;#808080&quot;&gt;&lt;br style=&quot;border-color: var(--border-color);&quot;&gt;&lt;/font&gt;&lt;font style=&quot;border-color: var(--border-color); font-size: 10px;&quot;&gt;uri: org-A.nl/Condition/con1&lt;br style=&quot;border-color: var(--border-color);&quot;&gt;code: Diabetes Mellitus II&lt;/font&gt;" style="rounded=1;whiteSpace=wrap;html=1;verticalAlign=top;spacingTop=10;" parent="1" vertex="1">
          <mxGeometry x="60" y="1207.5" width="140" height="65" as="geometry" />
        </mxCell>
        <mxCell id="KKVsU4eMc3JYL8btH_r8-216" value="&lt;b style=&quot;border-color: var(--border-color); font-size: 11px;&quot;&gt;Practitioner&lt;/b&gt;&lt;font style=&quot;border-color: var(--border-color); font-size: 11px;&quot; color=&quot;#808080&quot;&gt;&lt;br style=&quot;border-color: var(--border-color);&quot;&gt;&lt;/font&gt;&lt;font style=&quot;border-color: var(--border-color); font-size: 10px;&quot;&gt;uri: org-A.nl/Practitioner/prA&lt;/font&gt;" style="rounded=1;whiteSpace=wrap;html=1;verticalAlign=top;spacingTop=10;" parent="1" vertex="1">
          <mxGeometry x="60" y="1297.5" width="140" height="65" as="geometry" />
        </mxCell>
        <mxCell id="KKVsU4eMc3JYL8btH_r8-217" style="edgeStyle=orthogonalEdgeStyle;rounded=0;orthogonalLoop=1;jettySize=auto;html=1;exitX=0.5;exitY=0;exitDx=0;exitDy=0;entryX=0.5;entryY=1;entryDx=0;entryDy=0;strokeColor=#808080;" parent="1" source="KKVsU4eMc3JYL8btH_r8-215" target="KKVsU4eMc3JYL8btH_r8-212" edge="1">
          <mxGeometry relative="1" as="geometry">
            <mxPoint x="560" y="1372.5" as="sourcePoint" />
          </mxGeometry>
        </mxCell>
        <mxCell id="KKVsU4eMc3JYL8btH_r8-218" value="subject" style="edgeLabel;html=1;align=center;verticalAlign=middle;resizable=0;points=[];" parent="KKVsU4eMc3JYL8btH_r8-217" vertex="1" connectable="0">
          <mxGeometry x="0.635" y="-1" relative="1" as="geometry">
            <mxPoint x="-21" y="11" as="offset" />
          </mxGeometry>
        </mxCell>
        <mxCell id="KKVsU4eMc3JYL8btH_r8-219" style="edgeStyle=orthogonalEdgeStyle;rounded=0;orthogonalLoop=1;jettySize=auto;html=1;exitX=0;exitY=0.75;exitDx=0;exitDy=0;entryX=1;entryY=0.5;entryDx=0;entryDy=0;jumpStyle=arc;strokeColor=#808080;" parent="1" source="KKVsU4eMc3JYL8btH_r8-225" target="KKVsU4eMc3JYL8btH_r8-215" edge="1">
          <mxGeometry relative="1" as="geometry">
            <mxPoint x="130" y="1467.5" as="targetPoint" />
          </mxGeometry>
        </mxCell>
        <mxCell id="KKVsU4eMc3JYL8btH_r8-220" value="adresses" style="edgeLabel;html=1;align=center;verticalAlign=middle;resizable=0;points=[];labelBackgroundColor=#FFFFFF;" parent="KKVsU4eMc3JYL8btH_r8-219" vertex="1" connectable="0">
          <mxGeometry x="0.1987" y="-1" relative="1" as="geometry">
            <mxPoint x="2" y="12" as="offset" />
          </mxGeometry>
        </mxCell>
        <mxCell id="KKVsU4eMc3JYL8btH_r8-221" style="edgeStyle=orthogonalEdgeStyle;rounded=0;orthogonalLoop=1;jettySize=auto;html=1;exitX=0.5;exitY=1;exitDx=0;exitDy=0;entryX=0.5;entryY=0;entryDx=0;entryDy=0;strokeColor=#808080;" parent="1" source="KKVsU4eMc3JYL8btH_r8-225" target="KKVsU4eMc3JYL8btH_r8-211" edge="1">
          <mxGeometry relative="1" as="geometry">
            <mxPoint x="329.9999999999998" y="1257.5" as="sourcePoint" />
            <mxPoint x="354.9999999999998" y="1282.5" as="targetPoint" />
          </mxGeometry>
        </mxCell>
        <mxCell id="KKVsU4eMc3JYL8btH_r8-222" value="careTeam" style="edgeLabel;html=1;align=center;verticalAlign=middle;resizable=0;points=[];" parent="KKVsU4eMc3JYL8btH_r8-221" vertex="1" connectable="0">
          <mxGeometry x="-0.1712" relative="1" as="geometry">
            <mxPoint x="-26" y="-2" as="offset" />
          </mxGeometry>
        </mxCell>
        <mxCell id="KKVsU4eMc3JYL8btH_r8-223" style="edgeStyle=orthogonalEdgeStyle;rounded=0;orthogonalLoop=1;jettySize=auto;html=1;exitX=0.5;exitY=0;exitDx=0;exitDy=0;entryX=1;entryY=0.5;entryDx=0;entryDy=0;strokeColor=#808080;" parent="1" source="KKVsU4eMc3JYL8btH_r8-225" target="KKVsU4eMc3JYL8btH_r8-212" edge="1">
          <mxGeometry relative="1" as="geometry" />
        </mxCell>
        <mxCell id="KKVsU4eMc3JYL8btH_r8-224" value="subject" style="edgeLabel;html=1;align=center;verticalAlign=middle;resizable=0;points=[];" parent="KKVsU4eMc3JYL8btH_r8-223" vertex="1" connectable="0">
          <mxGeometry x="-0.3514" relative="1" as="geometry">
            <mxPoint x="-66" y="8" as="offset" />
          </mxGeometry>
        </mxCell>
        <mxCell id="KKVsU4eMc3JYL8btH_r8-225" value="&lt;font style=&quot;&quot;&gt;&lt;b style=&quot;font-size: 11px;&quot;&gt;CarePlan&lt;/b&gt;&lt;font style=&quot;font-size: 11px;&quot; color=&quot;#808080&quot;&gt;&lt;br style=&quot;font-size: 11px;&quot;&gt;&lt;/font&gt;&lt;font style=&quot;font-size: 10px;&quot;&gt;uri: org-A.nl/CarePlan/cp1&lt;br&gt;&lt;/font&gt;&lt;br style=&quot;font-size: 11px;&quot;&gt;&lt;/font&gt;" style="rounded=1;whiteSpace=wrap;html=1;verticalAlign=top;spacingTop=2;fontSize=11;fillColor=#dae8fc;strokeColor=#6c8ebf;" parent="1" vertex="1">
          <mxGeometry x="270" y="1180.5" width="170" height="80" as="geometry" />
        </mxCell>
        <mxCell id="KKVsU4eMc3JYL8btH_r8-226" style="edgeStyle=orthogonalEdgeStyle;rounded=0;orthogonalLoop=1;jettySize=auto;html=1;exitX=0.5;exitY=1;exitDx=0;exitDy=0;entryX=0;entryY=0.5;entryDx=0;entryDy=0;strokeColor=#808080;" parent="1" source="KKVsU4eMc3JYL8btH_r8-228" target="KKVsU4eMc3JYL8btH_r8-241" edge="1">
          <mxGeometry relative="1" as="geometry" />
        </mxCell>
        <mxCell id="KKVsU4eMc3JYL8btH_r8-227" value="role: surgeon&lt;br style=&quot;border-color: var(--border-color);&quot;&gt;start: 1/2/23&lt;br&gt;end: 1/6/23" style="edgeLabel;html=1;align=center;verticalAlign=middle;resizable=0;points=[];" parent="KKVsU4eMc3JYL8btH_r8-226" vertex="1" connectable="0">
          <mxGeometry x="-0.4579" relative="1" as="geometry">
            <mxPoint x="57" y="6" as="offset" />
          </mxGeometry>
        </mxCell>
        <mxCell id="KKVsU4eMc3JYL8btH_r8-251" style="edgeStyle=orthogonalEdgeStyle;rounded=0;orthogonalLoop=1;jettySize=auto;html=1;exitX=0.5;exitY=1;exitDx=0;exitDy=0;entryX=0.5;entryY=1;entryDx=0;entryDy=0;strokeColor=#808080;" parent="1" source="KKVsU4eMc3JYL8btH_r8-228" target="KKVsU4eMc3JYL8btH_r8-247" edge="1">
          <mxGeometry relative="1" as="geometry" />
        </mxCell>
        <mxCell id="KKVsU4eMc3JYL8btH_r8-252" value="role: nurse-at-home&lt;br&gt;start: 6/2/23" style="edgeLabel;html=1;align=center;verticalAlign=middle;resizable=0;points=[];" parent="KKVsU4eMc3JYL8btH_r8-251" vertex="1" connectable="0">
          <mxGeometry x="-0.2161" y="-1" relative="1" as="geometry">
            <mxPoint as="offset" />
          </mxGeometry>
        </mxCell>
        <mxCell id="KKVsU4eMc3JYL8btH_r8-228" value="&lt;font style=&quot;&quot;&gt;&lt;font style=&quot;font-size: 10px;&quot;&gt;members&lt;/font&gt;&lt;br&gt;&lt;/font&gt;" style="rounded=1;whiteSpace=wrap;html=1;verticalAlign=middle;spacingTop=0;spacing=0;fillColor=none;" parent="1" vertex="1">
          <mxGeometry x="316" y="1340.5" width="75" height="13" as="geometry" />
        </mxCell>
        <mxCell id="KKVsU4eMc3JYL8btH_r8-229" value="&lt;font style=&quot;&quot;&gt;&lt;font style=&quot;font-size: 10px;&quot;&gt;activities&lt;/font&gt;&lt;br&gt;&lt;/font&gt;" style="rounded=1;whiteSpace=wrap;html=1;verticalAlign=middle;spacingTop=0;spacing=0;fillColor=none;" parent="1" vertex="1">
          <mxGeometry x="317.5" y="1240.5" width="75" height="13" as="geometry" />
        </mxCell>
        <mxCell id="KKVsU4eMc3JYL8btH_r8-230" value="" style="edgeStyle=orthogonalEdgeStyle;rounded=0;orthogonalLoop=1;jettySize=auto;html=1;exitX=0;exitY=0.5;exitDx=0;exitDy=0;entryX=1;entryY=0.75;entryDx=0;entryDy=0;strokeColor=#808080;" parent="1" source="KKVsU4eMc3JYL8btH_r8-228" target="KKVsU4eMc3JYL8btH_r8-216" edge="1">
          <mxGeometry relative="1" as="geometry">
            <mxPoint x="440" y="1181.5" as="sourcePoint" />
            <mxPoint x="200" y="1330.5" as="targetPoint" />
          </mxGeometry>
        </mxCell>
        <mxCell id="KKVsU4eMc3JYL8btH_r8-231" value="role: gp&lt;br&gt;start: 1/1/23" style="edgeLabel;html=1;align=center;verticalAlign=middle;resizable=0;points=[];" parent="KKVsU4eMc3JYL8btH_r8-230" vertex="1" connectable="0">
          <mxGeometry x="0.3859" relative="1" as="geometry">
            <mxPoint x="14" y="7" as="offset" />
          </mxGeometry>
        </mxCell>
        <mxCell id="KKVsU4eMc3JYL8btH_r8-232" style="edgeStyle=orthogonalEdgeStyle;rounded=0;orthogonalLoop=1;jettySize=auto;html=1;exitX=1;exitY=0.5;exitDx=0;exitDy=0;entryX=0;entryY=0.5;entryDx=0;entryDy=0;strokeColor=#808080;" parent="1" source="KKVsU4eMc3JYL8btH_r8-234" target="KKVsU4eMc3JYL8btH_r8-235" edge="1">
          <mxGeometry relative="1" as="geometry" />
        </mxCell>
        <mxCell id="KKVsU4eMc3JYL8btH_r8-233" style="edgeStyle=orthogonalEdgeStyle;rounded=0;orthogonalLoop=1;jettySize=auto;html=1;exitX=1;exitY=0.5;exitDx=0;exitDy=0;entryX=0;entryY=0.5;entryDx=0;entryDy=0;strokeColor=#808080;" parent="1" source="KKVsU4eMc3JYL8btH_r8-234" target="KKVsU4eMc3JYL8btH_r8-236" edge="1">
          <mxGeometry relative="1" as="geometry" />
        </mxCell>
        <mxCell id="KKVsU4eMc3JYL8btH_r8-234" value="&lt;font style=&quot;&quot;&gt;&lt;font style=&quot;font-size: 10px;&quot;&gt;supportingInfo&lt;/font&gt;&lt;br&gt;&lt;/font&gt;" style="rounded=1;whiteSpace=wrap;html=1;verticalAlign=middle;spacingTop=0;spacing=0;fillColor=none;" parent="1" vertex="1">
          <mxGeometry x="316" y="1219" width="75" height="13" as="geometry" />
        </mxCell>
        <mxCell id="KKVsU4eMc3JYL8btH_r8-235" value="&lt;b style=&quot;border-color: var(--border-color); font-size: 11px;&quot;&gt;Condition&lt;/b&gt;&lt;font style=&quot;border-color: var(--border-color); font-size: 11px;&quot; color=&quot;#808080&quot;&gt;&lt;br style=&quot;border-color: var(--border-color);&quot;&gt;&lt;/font&gt;&lt;font style=&quot;border-color: var(--border-color); font-size: 10px;&quot;&gt;uri: org-A.nl/Condition/con1&lt;br style=&quot;border-color: var(--border-color);&quot;&gt;code: hypertensie&lt;/font&gt;" style="rounded=1;whiteSpace=wrap;html=1;verticalAlign=top;spacingTop=10;" parent="1" vertex="1">
          <mxGeometry x="480" y="1090" width="140" height="65" as="geometry" />
        </mxCell>
        <mxCell id="KKVsU4eMc3JYL8btH_r8-236" value="&lt;b style=&quot;border-color: var(--border-color); font-size: 11px;&quot;&gt;MedicationRequest&lt;/b&gt;&lt;font style=&quot;border-color: var(--border-color); font-size: 11px;&quot; color=&quot;#808080&quot;&gt;&lt;br style=&quot;border-color: var(--border-color);&quot;&gt;&lt;/font&gt;&lt;font style=&quot;border-color: var(--border-color); font-size: 10px;&quot;&gt;uri: org-A.nl/ MedicationRequest/mr1&lt;/font&gt;" style="rounded=1;whiteSpace=wrap;html=1;verticalAlign=top;spacingTop=10;" parent="1" vertex="1">
          <mxGeometry x="480" y="1167" width="140" height="65" as="geometry" />
        </mxCell>
        <mxCell id="KKVsU4eMc3JYL8btH_r8-239" style="edgeStyle=orthogonalEdgeStyle;rounded=0;orthogonalLoop=1;jettySize=auto;html=1;exitX=0.25;exitY=1;exitDx=0;exitDy=0;entryX=0.5;entryY=1;entryDx=0;entryDy=0;strokeColor=#808080;" parent="1" source="KKVsU4eMc3JYL8btH_r8-244" target="KKVsU4eMc3JYL8btH_r8-216" edge="1">
          <mxGeometry relative="1" as="geometry">
            <mxPoint x="1040.0000000000002" y="1114" as="sourcePoint" />
            <mxPoint x="1327" y="1242" as="targetPoint" />
            <Array as="points">
              <mxPoint x="515" y="1387.5" />
              <mxPoint x="130" y="1387.5" />
            </Array>
          </mxGeometry>
        </mxCell>
        <mxCell id="KKVsU4eMc3JYL8btH_r8-240" value="requestor" style="edgeLabel;html=1;align=center;verticalAlign=middle;resizable=0;points=[];" parent="KKVsU4eMc3JYL8btH_r8-239" vertex="1" connectable="0">
          <mxGeometry x="0.2856" relative="1" as="geometry">
            <mxPoint x="-8" as="offset" />
          </mxGeometry>
        </mxCell>
        <mxCell id="KKVsU4eMc3JYL8btH_r8-241" value="&lt;b style=&quot;border-color: var(--border-color); font-size: 11px;&quot;&gt;CareTeam&lt;/b&gt;&lt;font style=&quot;border-color: var(--border-color); font-size: 11px;&quot; color=&quot;#808080&quot;&gt;&lt;br style=&quot;border-color: var(--border-color);&quot;&gt;&lt;/font&gt;&lt;font style=&quot;font-size: 10px;&quot;&gt;uri: org-B.nl/ Organization/snijteam&lt;/font&gt;&lt;span style=&quot;font-size: 14px;&quot;&gt;&lt;br&gt;&lt;/span&gt;" style="rounded=1;whiteSpace=wrap;html=1;verticalAlign=top;spacingTop=2;" parent="1" vertex="1">
          <mxGeometry x="480" y="1407.5" width="140" height="65" as="geometry" />
        </mxCell>
        <mxCell id="KKVsU4eMc3JYL8btH_r8-242" style="edgeStyle=orthogonalEdgeStyle;rounded=0;orthogonalLoop=1;jettySize=auto;html=1;entryX=0.5;entryY=0;entryDx=0;entryDy=0;strokeColor=#808080;" parent="1" source="KKVsU4eMc3JYL8btH_r8-244" target="KKVsU4eMc3JYL8btH_r8-241" edge="1">
          <mxGeometry relative="1" as="geometry" />
        </mxCell>
        <mxCell id="KKVsU4eMc3JYL8btH_r8-243" value="owner" style="edgeLabel;html=1;align=center;verticalAlign=middle;resizable=0;points=[];" parent="KKVsU4eMc3JYL8btH_r8-242" vertex="1" connectable="0">
          <mxGeometry x="-0.6051" y="1" relative="1" as="geometry">
            <mxPoint x="-1" y="6" as="offset" />
          </mxGeometry>
        </mxCell>
        <mxCell id="KKVsU4eMc3JYL8btH_r8-254" style="edgeStyle=orthogonalEdgeStyle;rounded=0;orthogonalLoop=1;jettySize=auto;html=1;exitX=1;exitY=0.5;exitDx=0;exitDy=0;entryX=1;entryY=0.5;entryDx=0;entryDy=0;strokeColor=#808080;jumpStyle=arc;" parent="1" source="KKVsU4eMc3JYL8btH_r8-244" target="KKVsU4eMc3JYL8btH_r8-253" edge="1">
          <mxGeometry relative="1" as="geometry">
            <Array as="points">
              <mxPoint x="630" y="1330" />
              <mxPoint x="630" y="1532" />
            </Array>
          </mxGeometry>
        </mxCell>
        <mxCell id="KKVsU4eMc3JYL8btH_r8-255" value="output" style="edgeLabel;html=1;align=center;verticalAlign=middle;resizable=0;points=[];" parent="KKVsU4eMc3JYL8btH_r8-254" vertex="1" connectable="0">
          <mxGeometry x="0.3087" y="-1" relative="1" as="geometry">
            <mxPoint x="11" y="44" as="offset" />
          </mxGeometry>
        </mxCell>
        <mxCell id="KKVsU4eMc3JYL8btH_r8-244" value="&lt;font style=&quot;font-size: 10px;&quot;&gt;&lt;b style=&quot;font-size: 11px;&quot;&gt;Task&lt;/b&gt;&lt;font style=&quot;font-size: 11px;&quot; color=&quot;#808080&quot;&gt;&lt;br style=&quot;font-size: 11px;&quot;&gt;&lt;/font&gt;uri: org-A.nl/Task/task1&lt;br style=&quot;&quot;&gt;code: amputation&lt;br style=&quot;&quot;&gt;status: completed&lt;br style=&quot;font-size: 11px;&quot;&gt;&lt;br style=&quot;font-size: 11px;&quot;&gt;&lt;/font&gt;" style="rounded=1;whiteSpace=wrap;html=1;verticalAlign=top;spacingTop=2;fontSize=11;fillColor=#dae8fc;strokeColor=#6c8ebf;" parent="1" vertex="1">
          <mxGeometry x="480" y="1297.5" width="140" height="65" as="geometry" />
        </mxCell>
        <mxCell id="KKVsU4eMc3JYL8btH_r8-245" style="edgeStyle=orthogonalEdgeStyle;rounded=0;orthogonalLoop=1;jettySize=auto;html=1;exitX=1;exitY=0.5;exitDx=0;exitDy=0;strokeColor=#808080;" parent="1" source="KKVsU4eMc3JYL8btH_r8-229" target="KKVsU4eMc3JYL8btH_r8-244" edge="1">
          <mxGeometry relative="1" as="geometry">
            <mxPoint x="1150" y="1265" as="sourcePoint" />
          </mxGeometry>
        </mxCell>
        <mxCell id="KKVsU4eMc3JYL8btH_r8-248" style="edgeStyle=orthogonalEdgeStyle;rounded=0;orthogonalLoop=1;jettySize=auto;html=1;exitX=0.5;exitY=1;exitDx=0;exitDy=0;entryX=0.5;entryY=0;entryDx=0;entryDy=0;strokeColor=#808080;" parent="1" source="KKVsU4eMc3JYL8btH_r8-246" target="KKVsU4eMc3JYL8btH_r8-247" edge="1">
          <mxGeometry relative="1" as="geometry" />
        </mxCell>
        <mxCell id="KKVsU4eMc3JYL8btH_r8-249" value="owner" style="edgeLabel;html=1;align=center;verticalAlign=middle;resizable=0;points=[];" parent="KKVsU4eMc3JYL8btH_r8-248" vertex="1" connectable="0">
          <mxGeometry x="-0.2516" y="-1" relative="1" as="geometry">
            <mxPoint as="offset" />
          </mxGeometry>
        </mxCell>
        <mxCell id="KKVsU4eMc3JYL8btH_r8-250" style="edgeStyle=orthogonalEdgeStyle;rounded=0;orthogonalLoop=1;jettySize=auto;html=1;entryX=0.75;entryY=1;entryDx=0;entryDy=0;strokeColor=#808080;exitX=0.25;exitY=0;exitDx=0;exitDy=0;" parent="1" source="KKVsU4eMc3JYL8btH_r8-246" target="KKVsU4eMc3JYL8btH_r8-225" edge="1">
          <mxGeometry relative="1" as="geometry">
            <Array as="points">
              <mxPoint x="685" y="1281" />
              <mxPoint x="398" y="1281" />
            </Array>
            <mxPoint x="710" y="1290" as="sourcePoint" />
          </mxGeometry>
        </mxCell>
        <mxCell id="KKVsU4eMc3JYL8btH_r8-246" value="&lt;font style=&quot;font-size: 10px;&quot;&gt;&lt;b style=&quot;font-size: 11px;&quot;&gt;Task&lt;/b&gt;&lt;font style=&quot;font-size: 11px;&quot; color=&quot;#808080&quot;&gt;&lt;br style=&quot;font-size: 11px;&quot;&gt;&lt;/font&gt;uri: org-B.nl/Task/task1&lt;br style=&quot;&quot;&gt;code:&amp;nbsp;revalidation&lt;br&gt;status: in-progress&lt;br style=&quot;font-size: 11px;&quot;&gt;&lt;br style=&quot;font-size: 11px;&quot;&gt;&lt;/font&gt;" style="rounded=1;whiteSpace=wrap;html=1;verticalAlign=top;spacingTop=2;fontSize=11;fillColor=#d5e8d4;strokeColor=#82b366;" parent="1" vertex="1">
          <mxGeometry x="650" y="1298.5" width="140" height="65" as="geometry" />
        </mxCell>
        <mxCell id="KKVsU4eMc3JYL8btH_r8-247" value="&lt;b style=&quot;border-color: var(--border-color); font-size: 11px;&quot;&gt;CareTeam&lt;/b&gt;&lt;font style=&quot;border-color: var(--border-color); font-size: 11px;&quot; color=&quot;#808080&quot;&gt;&lt;br style=&quot;border-color: var(--border-color);&quot;&gt;&lt;/font&gt;&lt;font style=&quot;border-color: var(--border-color); font-size: 10px;&quot;&gt;uri: org-C.nl/ Organization/wijkteam1&lt;/font&gt;&lt;span style=&quot;font-size: 14px;&quot;&gt;&lt;br&gt;&lt;/span&gt;" style="rounded=1;whiteSpace=wrap;html=1;verticalAlign=top;spacingTop=2;" parent="1" vertex="1">
          <mxGeometry x="650" y="1407.5" width="140" height="65" as="geometry" />
        </mxCell>
        <mxCell id="KKVsU4eMc3JYL8btH_r8-253" value="&lt;b style=&quot;border-color: var(--border-color); font-size: 11px;&quot;&gt;Procedure&lt;/b&gt;&lt;font style=&quot;border-color: var(--border-color); font-size: 11px;&quot; color=&quot;#808080&quot;&gt;&lt;br style=&quot;border-color: var(--border-color);&quot;&gt;&lt;/font&gt;&lt;font style=&quot;border-color: var(--border-color); font-size: 10px;&quot;&gt;uri: org-B.nl/Procedure/pd1&lt;/font&gt;" style="rounded=1;whiteSpace=wrap;html=1;verticalAlign=top;spacingTop=10;fillColor=#d5e8d4;strokeColor=#82b366;" parent="1" vertex="1">
          <mxGeometry x="480" y="1500" width="140" height="65" as="geometry" />
        </mxCell>
        <mxCell id="KKVsU4eMc3JYL8btH_r8-263" value="" style="endArrow=none;html=1;rounded=0;exitX=0;exitY=0;exitDx=0;exitDy=0;strokeColor=none;" parent="1" edge="1">
          <mxGeometry width="50" height="50" relative="1" as="geometry">
            <mxPoint x="70" y="-432" as="sourcePoint" />
            <mxPoint x="790" y="-432" as="targetPoint" />
          </mxGeometry>
        </mxCell>
        <mxCell id="KKVsU4eMc3JYL8btH_r8-267" value="" style="endArrow=none;html=1;rounded=0;exitX=0;exitY=0;exitDx=0;exitDy=0;strokeColor=none;" parent="1" edge="1">
          <mxGeometry width="50" height="50" relative="1" as="geometry">
            <mxPoint x="65" y="240" as="sourcePoint" />
            <mxPoint x="785" y="240" as="targetPoint" />
          </mxGeometry>
        </mxCell>
        <mxCell id="KKVsU4eMc3JYL8btH_r8-274" value="new&amp;nbsp;" style="rounded=1;whiteSpace=wrap;html=1;fillColor=#d5e8d4;strokeColor=#82b366;fontSize=10;" parent="1" vertex="1">
          <mxGeometry x="118.5" y="152" width="25" height="20" as="geometry" />
        </mxCell>
        <mxCell id="KKVsU4eMc3JYL8btH_r8-275" value="existing" style="rounded=1;whiteSpace=wrap;html=1;fontSize=10;" parent="1" vertex="1">
          <mxGeometry x="73.5" y="152" width="40" height="20" as="geometry" />
        </mxCell>
        <mxCell id="KKVsU4eMc3JYL8btH_r8-276" value="legend data elements" style="rounded=1;whiteSpace=wrap;html=1;fontSize=10;fillColor=default;strokeColor=none;" parent="1" vertex="1">
          <mxGeometry x="74.5" y="140" width="102" height="7.5" as="geometry" />
        </mxCell>
        <mxCell id="KKVsU4eMc3JYL8btH_r8-279" value="updated" style="rounded=1;whiteSpace=wrap;html=1;fillColor=#dae8fc;strokeColor=#6c8ebf;fontSize=10;" parent="1" vertex="1">
          <mxGeometry x="147.5" y="152" width="39" height="20" as="geometry" />
        </mxCell>
        <mxCell id="KKVsU4eMc3JYL8btH_r8-280" value="new&amp;nbsp;" style="rounded=1;whiteSpace=wrap;html=1;fillColor=#d5e8d4;strokeColor=#82b366;fontSize=10;" parent="1" vertex="1">
          <mxGeometry x="120" y="550" width="25" height="20" as="geometry" />
        </mxCell>
        <mxCell id="KKVsU4eMc3JYL8btH_r8-281" value="existing" style="rounded=1;whiteSpace=wrap;html=1;fontSize=10;" parent="1" vertex="1">
          <mxGeometry x="75" y="550" width="40" height="20" as="geometry" />
        </mxCell>
        <mxCell id="KKVsU4eMc3JYL8btH_r8-283" value="updated" style="rounded=1;whiteSpace=wrap;html=1;fillColor=#dae8fc;strokeColor=#6c8ebf;fontSize=10;" parent="1" vertex="1">
          <mxGeometry x="149" y="550" width="39" height="20" as="geometry" />
        </mxCell>
        <mxCell id="KKVsU4eMc3JYL8btH_r8-284" value="new&amp;nbsp;" style="rounded=1;whiteSpace=wrap;html=1;fillColor=#d5e8d4;strokeColor=#82b366;fontSize=10;" parent="1" vertex="1">
          <mxGeometry x="110" y="1002.5" width="25" height="20" as="geometry" />
        </mxCell>
        <mxCell id="KKVsU4eMc3JYL8btH_r8-285" value="existing" style="rounded=1;whiteSpace=wrap;html=1;fontSize=10;" parent="1" vertex="1">
          <mxGeometry x="65" y="1002.5" width="40" height="20" as="geometry" />
        </mxCell>
        <mxCell id="KKVsU4eMc3JYL8btH_r8-287" value="updated" style="rounded=1;whiteSpace=wrap;html=1;fillColor=#dae8fc;strokeColor=#6c8ebf;fontSize=10;" parent="1" vertex="1">
          <mxGeometry x="139" y="1002.5" width="39" height="20" as="geometry" />
        </mxCell>
        <mxCell id="KKVsU4eMc3JYL8btH_r8-288" value="new&amp;nbsp;" style="rounded=1;whiteSpace=wrap;html=1;fillColor=#d5e8d4;strokeColor=#82b366;fontSize=10;" parent="1" vertex="1">
          <mxGeometry x="110" y="1452.5" width="25" height="20" as="geometry" />
        </mxCell>
        <mxCell id="KKVsU4eMc3JYL8btH_r8-289" value="existing" style="rounded=1;whiteSpace=wrap;html=1;fontSize=10;" parent="1" vertex="1">
          <mxGeometry x="65" y="1452.5" width="40" height="20" as="geometry" />
        </mxCell>
        <mxCell id="KKVsU4eMc3JYL8btH_r8-291" value="updated" style="rounded=1;whiteSpace=wrap;html=1;fillColor=#dae8fc;strokeColor=#6c8ebf;fontSize=10;" parent="1" vertex="1">
          <mxGeometry x="139" y="1452.5" width="39" height="20" as="geometry" />
        </mxCell>
        <mxCell id="KKVsU4eMc3JYL8btH_r8-292" value="legend data elements" style="rounded=1;whiteSpace=wrap;html=1;fontSize=10;fillColor=default;strokeColor=none;" parent="1" vertex="1">
          <mxGeometry x="75" y="538.75" width="102" height="7.5" as="geometry" />
        </mxCell>
        <mxCell id="KKVsU4eMc3JYL8btH_r8-293" value="legend data elements" style="rounded=1;whiteSpace=wrap;html=1;fontSize=10;fillColor=default;strokeColor=none;" parent="1" vertex="1">
          <mxGeometry x="65" y="992" width="102" height="7.5" as="geometry" />
        </mxCell>
        <mxCell id="KKVsU4eMc3JYL8btH_r8-295" value="legend data elements" style="rounded=1;whiteSpace=wrap;html=1;fontSize=10;fillColor=default;strokeColor=none;" parent="1" vertex="1">
          <mxGeometry x="65" y="1441.25" width="102" height="7.5" as="geometry" />
        </mxCell>
        <mxCell id="KKVsU4eMc3JYL8btH_r8-94" style="edgeStyle=orthogonalEdgeStyle;rounded=0;orthogonalLoop=1;jettySize=auto;html=1;entryX=0.75;entryY=1;entryDx=0;entryDy=0;exitX=0.25;exitY=0;exitDx=0;exitDy=0;strokeColor=#808080;" parent="1" source="KKVsU4eMc3JYL8btH_r8-100" target="KKVsU4eMc3JYL8btH_r8-79" edge="1">
          <mxGeometry relative="1" as="geometry">
            <mxPoint x="1085.0000000000002" y="264.5000000000001" as="sourcePoint" />
            <mxPoint x="1120" y="314.5" as="targetPoint" />
          </mxGeometry>
        </mxCell>
        <mxCell id="KKVsU4eMc3JYL8btH_r8-95" value="basedOn" style="edgeLabel;html=1;align=center;verticalAlign=middle;resizable=0;points=[];" parent="KKVsU4eMc3JYL8btH_r8-94" vertex="1" connectable="0">
          <mxGeometry x="0.1678" y="1" relative="1" as="geometry">
            <mxPoint as="offset" />
          </mxGeometry>
        </mxCell>
        <mxCell id="KKVsU4eMc3JYL8btH_r8-237" style="edgeStyle=orthogonalEdgeStyle;rounded=0;orthogonalLoop=1;jettySize=auto;html=1;entryX=0.75;entryY=1;entryDx=0;entryDy=0;exitX=0.25;exitY=0;exitDx=0;exitDy=0;strokeColor=#808080;" parent="1" source="KKVsU4eMc3JYL8btH_r8-244" target="KKVsU4eMc3JYL8btH_r8-225" edge="1">
          <mxGeometry relative="1" as="geometry">
            <mxPoint x="1075.0000000000002" y="1162" as="sourcePoint" />
            <mxPoint x="1110" y="1212" as="targetPoint" />
            <Array as="points">
              <mxPoint x="515" y="1281" />
              <mxPoint x="398" y="1281" />
            </Array>
          </mxGeometry>
        </mxCell>
        <mxCell id="KKVsU4eMc3JYL8btH_r8-238" value="basedOn" style="edgeLabel;html=1;align=center;verticalAlign=middle;resizable=0;points=[];" parent="KKVsU4eMc3JYL8btH_r8-237" vertex="1" connectable="0">
          <mxGeometry x="0.1678" y="1" relative="1" as="geometry">
            <mxPoint as="offset" />
          </mxGeometry>
        </mxCell>
        <mxCell id="KKVsU4eMc3JYL8btH_r8-164" style="edgeStyle=orthogonalEdgeStyle;rounded=0;orthogonalLoop=1;jettySize=auto;html=1;entryX=0.75;entryY=1;entryDx=0;entryDy=0;exitX=0.25;exitY=0;exitDx=0;exitDy=0;strokeColor=#808080;" parent="1" source="KKVsU4eMc3JYL8btH_r8-171" target="KKVsU4eMc3JYL8btH_r8-155" edge="1">
          <mxGeometry relative="1" as="geometry">
            <mxPoint x="1075.0000000000002" y="712.0000000000001" as="sourcePoint" />
            <mxPoint x="1110" y="762" as="targetPoint" />
            <Array as="points">
              <mxPoint x="515" y="830" />
              <mxPoint x="398" y="830" />
            </Array>
          </mxGeometry>
        </mxCell>
        <mxCell id="KKVsU4eMc3JYL8btH_r8-165" value="basedOn" style="edgeLabel;html=1;align=center;verticalAlign=middle;resizable=0;points=[];" parent="KKVsU4eMc3JYL8btH_r8-164" vertex="1" connectable="0">
          <mxGeometry x="0.1678" y="1" relative="1" as="geometry">
            <mxPoint as="offset" />
          </mxGeometry>
        </mxCell>
        <mxCell id="rS05zM0y5XcA8JrxVAnZ-5" value="" style="endArrow=none;html=1;rounded=0;exitX=0;exitY=0;exitDx=0;exitDy=0;strokeColor=none;" parent="1" edge="1">
          <mxGeometry width="50" height="50" relative="1" as="geometry">
            <mxPoint x="75" y="-90.5" as="sourcePoint" />
            <mxPoint x="795" y="-90.5" as="targetPoint" />
          </mxGeometry>
        </mxCell>
        <mxCell id="3au5b70ryTIQBVAbRfE1-1" style="edgeStyle=orthogonalEdgeStyle;rounded=0;orthogonalLoop=1;jettySize=auto;html=1;exitX=1;exitY=0.5;exitDx=0;exitDy=0;strokeColor=#808080;entryX=0.5;entryY=0;entryDx=0;entryDy=0;" parent="1" source="KKVsU4eMc3JYL8btH_r8-229" target="KKVsU4eMc3JYL8btH_r8-246" edge="1">
          <mxGeometry relative="1" as="geometry">
            <mxPoint x="403" y="1257" as="sourcePoint" />
            <mxPoint x="740" y="1280" as="targetPoint" />
          </mxGeometry>
        </mxCell>
        <mxCell id="dQ_fWHSd1LR_PTJCRJk_-1" value="" style="html=1;verticalLabelPosition=bottom;align=center;labelBackgroundColor=#ffffff;verticalAlign=top;strokeWidth=2;strokeColor=#3399FF;shadow=0;dashed=0;shape=mxgraph.ios7.icons.home;" vertex="1" parent="1">
          <mxGeometry x="200" y="-850" width="24" height="25.5" as="geometry" />
        </mxCell>
        <mxCell id="dQ_fWHSd1LR_PTJCRJk_-4" value="" style="shape=mxgraph.cisco.buildings.small_business;html=1;pointerEvents=1;dashed=0;fillColor=#FFFFFF;strokeColor=#3399FF;strokeWidth=2;verticalLabelPosition=bottom;verticalAlign=top;align=center;outlineConnect=0;" vertex="1" parent="1">
          <mxGeometry x="285" y="-968" width="62" height="34" as="geometry" />
        </mxCell>
        <mxCell id="dQ_fWHSd1LR_PTJCRJk_-5" value="" style="sketch=0;outlineConnect=0;fontColor=#232F3E;gradientColor=none;fillColor=#3399FF;strokeColor=none;dashed=0;verticalLabelPosition=bottom;verticalAlign=top;align=center;html=1;fontSize=12;fontStyle=0;aspect=fixed;pointerEvents=1;shape=mxgraph.aws4.office_building;" vertex="1" parent="1">
          <mxGeometry x="70" y="-1040" width="50" height="78" as="geometry" />
        </mxCell>
      </root>
    </mxGraphModel>
  </diagram>
</mxfile>
